Launching: '/Users/wanwei/Downloads/ffmpeg-3.3.2/ffmpeg_g'
Working directory: '/Users/wanwei/Downloads/ffmpeg-3.3.2/doc/examples'
6 arguments:
argv[0] = '/Users/wanwei/Downloads/ffmpeg-3.3.2/ffmpeg_g'
argv[1] = '-i'
argv[2] = 'IMG_0730.MOV'
argv[3] = '-c:v'
argv[4] = 'copy'
argv[5] = 'IMG_0730.mp4'
ffmpeg version 3.3.2 Copyright (c) 2000-2017 the FFmpeg developers
  built with Apple LLVM version 8.1.0 (clang-802.0.42)
  configuration: --enable-debug=3 --disable-stripping --disable-optimizations
  libavutil      55. 58.100 / 55. 58.100
  libavcodec     57. 89.100 / 57. 89.100
  libavformat    57. 71.100 / 57. 71.100
  libavdevice    57.  6.100 / 57.  6.100
  libavfilter     6. 82.100 /  6. 82.100
  libswscale      4.  6.100 /  4.  6.100
  libswresample   2.  7.100 /  2.  7.100
Input #0, mov,mp4,m4a,3gp,3g2,mj2, from 'IMG_0730.MOV':
  Metadata:
    major_brand     : qt  
    minor_version   : 0
    compatible_brands: qt  
    creation_time   : 2017-02-24T06:01:07.000000Z
    com.apple.quicktime.location.ISO6709: +31.1909+121.4881+010.961/
    com.apple.quicktime.make: Apple
    com.apple.quicktime.model: iPhone 7
    com.apple.quicktime.software: 10.2.1
    com.apple.quicktime.creationdate: 2017-02-24T14:01:07+0800
  Duration: 00:01:43.03, start: -0.000023, bitrate: 15527 kb/s
    Stream #0:0(und): Video: h264 (High) (avc1 / 0x31637661), yuv420p(tv, bt709), 1920x1080, 15423 kb/s, 30 fps, 30 tbr, 600 tbn, 1200 tbc (default)
    Metadata:
      rotate          : 90
      creation_time   : 2017-02-24T06:01:07.000000Z
      handler_name    : Core Media Data Handler
      encoder         : H.264
    Side data:
      displaymatrix: rotation of -90.00 degrees
    Stream #0:1(und): Audio: aac (LC) (mp4a / 0x6134706D), 44100 Hz, mono, fltp, 88 kb/s (default)
    Metadata:
      creation_time   : 2017-02-24T06:01:07.000000Z
      handler_name    : Core Media Data Handler
    Stream #0:2(und): Data: none (mebx / 0x7862656D), 8 kb/s (default)
    Metadata:
      creation_time   : 2017-02-24T06:01:07.000000Z
      handler_name    : Core Media Data Handler
    Stream #0:3(und): Data: none (mebx / 0x7862656D) (default)
    Metadata:
      creation_time   : 2017-02-24T06:01:07.000000Z
      handler_name    : Core Media Data Handler
File 'IMG_0730.mp4' already exists. Overwrite ? [y/N] y
Stream mapping:
  Stream #0:0 -> #0:0 (copy)
  Stream #0:1 -> #0:1 (aac (native) -> aac (native))
Press [q] to stop, [?] for help
Output #0, mp4, to 'IMG_0730.mp4':
  Metadata:
    major_brand     : qt  
    minor_version   : 0
    compatible_brands: qt  
    com.apple.quicktime.creationdate: 2017-02-24T14:01:07+0800
    com.apple.quicktime.location.ISO6709: +31.1909+121.4881+010.961/
    com.apple.quicktime.make: Apple
    com.apple.quicktime.model: iPhone 7
    com.apple.quicktime.software: 10.2.1
    encoder         : Lavf57.71.100
    Stream #0:0(und): Video: h264 (High) ([33][0][0][0] / 0x0021), yuv420p(tv, bt709), 1920x1080, q=2-31, 15423 kb/s, 30 fps, 30 tbr, 19200 tbn, 600 tbc (default)
    Metadata:
      rotate          : 90
      creation_time   : 2017-02-24T06:01:07.000000Z
      handler_name    : Core Media Data Handler
      encoder         : H.264
    Side data:
      displaymatrix: rotation of -90.00 degrees
    Stream #0:1(und): Audio: aac (LC) ([64][0][0][0] / 0x0040), 44100 Hz, mono, fltp, 69 kb/s (default)
    Metadata:
      creation_time   : 2017-02-24T06:01:07.000000Z
      handler_name    : Core Media Data Handler
      encoder         : Lavc57.89.100 aac
frame=  258 fps=0.0 q=-1.0 size=   16316kB time=00:00:09.54 bitrate=14005.5kbitsframe=  495 fps=495 q=-1.0 size=   31117kB time=00:00:17.43 bitrate=14617.8kbits
frame=  748 fps=498 q=-1.0 size=   46749kB time=00:00:25.89 bitrate=14791.9kbitsframe=  957 fps=478 q=-1.0 size=   60074kB time=00:00:32.85 bitrate=14978.1kbits
frame= 1208 fps=483 q=-1.0 size=   75973kB time=00:00:41.23 bitrate=15092.0kbitsframe= 1447 fps=482 q=-1.0 size=   90619kB time=00:00:49.20 bitrate=15087.4kbits
frame= 1691 fps=483 q=-1.0 size=  105724kB time=00:00:57.30 bitrate=15113.2kbitsframe= 1957 fps=489 q=-1.0 size=  122968kB time=00:01:06.15 bitrate=15227.4kbits
frame= 2223 fps=494 q=-1.0 size=  139692kB time=00:01:15.07 bitrate=15243.8kbitsframe= 2467 fps=493 q=-1.0 size=  155098kB time=00:01:23.19 bitrate=15271.7kbits
frame= 2728 fps=496 q=-1.0 size=  171615kB time=00:01:31.85 bitrate=15304.8kbitsframe= 2968 fps=494 q=-1.0 size=  186910kB time=00:01:39.89 bitrate=15328.2kbits
frame= 3091 fps=491 q=-1.0 Lsize=  194943kB time=00:01:43.05 bitrate=15497.1kbits/s speed=16.4x    
video:193982kB audio:874kB subtitle:0kB other streams:0kB global headers:0kB muxing overhead: 0.044615%
[aac @ 0x10280d200] Qavg: 252.241
Process exited with status 0

[进程已完成]
